<svg height="804" xmlns:ev="http://www.w3.org/2001/xml-events" width="2255" xmlns:xlink="http://www.w3.org/1999/xlink" xmlns="http://www.w3.org/2000/svg" viewBox="0 0 2255 804"><style type="text/css"><![CDATA[
.st2 {fill:#303030;font-family:宋体;font-size:10pt}
.st1 {fill:#303030;font-family:宋体;font-size:12pt}
.st3 {fill:#303030;font-family:宋体;font-size:9pt}
]]></style><defs><linearGradient y1="0%" y2="100%" x1="0%" id="lg1" x2="0%"><stop offset="0" stop-color="#fbfbfb"/><stop offset="1" stop-color="#efefef"/></linearGradient></defs><g id="page1" transform="translate(5,5)"><rect height="794" stroke="#808080" width="2245" x="0" y="0" fill="#ffffff"/><path stroke="#6d6d6d" fill="none" id="shape1" transform="translate(217,77.85)" d="M0,0L8,0L8,-1C8,-3.4,9.6,-5,12,-5L20,-5"/><path stroke="#6d6d6d" fill="none" id="shape2" transform="translate(217,77.85)" d="M0,0L8,0L8,17C8,20.6,10.4,23,14,23L20,23"/><path stroke="#6d6d6d" fill="none" id="shape3" transform="translate(217,171.85)" d="M0,0L8,0L8,-1C8,-3.4,9.6,-5,12,-5L20,-5"/><path stroke="#6d6d6d" fill="none" id="shape4" transform="translate(93,279.85)" d="M0,0L82,-108"/><path stroke="#6d6d6d" fill="none" id="shape5" transform="translate(217,171.85)" d="M0,0L8,0L8,-27C8,-30.6,10.4,-33,14,-33L20,-33"/><path stroke="#6d6d6d" fill="none" id="shape6" transform="translate(217,171.85)" d="M0,0L8,0L8,17C8,20.6,10.4,23,14,23L20,23"/><path stroke="#6d6d6d" fill="none" id="shape7" transform="translate(217,171.85)" d="M0,0L8,0L8,45C8,48.6,10.4,51,14,51L20,51"/><path stroke="#6d6d6d" fill="none" id="shape8" transform="translate(217,293.85)" d="M0,0L8,0L8,-27C8,-30.6,10.4,-33,14,-33L20,-33"/><path stroke="#6d6d6d" fill="none" id="shape9" transform="translate(93,279.85)" d="M0,0L82,122"/><path stroke="#6d6d6d" fill="none" id="shape10" transform="translate(217,401.85)" d="M0,0L8,0L8,-13C8,-16.6,10.4,-19,14,-19L20,-19"/><path stroke="#6d6d6d" fill="none" id="shape11" transform="translate(93,279.85)" d="M0,0L82,202"/><path stroke="#6d6d6d" fill="none" id="shape12" transform="translate(231,481.85)" d="M0,0L8,0L8,-1C8,-3.4,9.6,-5,12,-5L20,-5"/><path stroke="#6d6d6d" fill="none" id="shape13" transform="translate(231,481.85)" d="M0,0L8,0L8,17C8,20.6,10.4,23,14,23L20,23"/><path stroke="#6d6d6d" fill="none" id="shape14" transform="translate(217,401.85)" d="M0,0L8,0L8,3C8,6.6,10.4,9,14,9L20,9"/><path stroke="#6d6d6d" fill="none" id="shape15" transform="translate(217,401.85)" d="M0,0L8,0L8,31C8,34.6,10.4,37,14,37L20,37"/><path stroke="#6d6d6d" fill="none" id="shape16" transform="translate(217,293.85)" d="M0,0L8,0L8,-1C8,-3.4,9.6,-5,12,-5L20,-5"/><path stroke="#6d6d6d" fill="none" id="shape17" transform="translate(93,279.85)" d="M0,0L82,14"/><path stroke="#6d6d6d" fill="none" id="shape18" transform="translate(297,72.85)" d="M0,0L8,0C8,0,8,0,8,0L20,0"/><path stroke="#6d6d6d" fill="none" id="shape19" transform="translate(285,100.85)" d="M0,0L8,0C8,0,8,0,8,0L20,0"/><path stroke="#6d6d6d" fill="none" id="shape20" transform="translate(297,138.85)" d="M0,0L8,0C8,0,8,0,8,0L20,0"/><path stroke="#6d6d6d" fill="none" id="shape21" transform="translate(309,166.85)" d="M0,0L8,0C8,0,8,0,8,0L20,0"/><path stroke="#6d6d6d" fill="none" id="shape22" transform="translate(275,222.85)" d="M0,0L8,0C8,0,8,0,8,0L20,0"/><path stroke="#6d6d6d" fill="none" id="shape23" transform="translate(297,260.85)" d="M0,0L8,0C8,0,8,0,8,0L20,0"/><path stroke="#6d6d6d" fill="none" id="shape24" transform="translate(297,288.85)" d="M0,0L8,0C8,0,8,0,8,0L20,0"/><path stroke="#6d6d6d" fill="none" id="shape25" transform="translate(309,382.85)" d="M0,0L8,0C8,0,8,0,8,0L20,0"/><path stroke="#6d6d6d" fill="none" id="shape26" transform="translate(297,410.85)" d="M0,0L8,0C8,0,8,0,8,0L20,0"/><path stroke="#6d6d6d" fill="none" id="shape27" transform="translate(297,438.85)" d="M0,0L8,0C8,0,8,0,8,0L20,0"/><path stroke="#6d6d6d" fill="none" id="shape28" transform="translate(289,476.85)" d="M0,0L8,0C8,0,8,0,8,0L20,0"/><path stroke="#6d6d6d" fill="none" id="shape29" transform="translate(323,504.85)" d="M0,0L8,0C8,0,8,0,8,0L20,0"/><path stroke="#6d6d6d" fill="none" id="shape30" transform="translate(217,293.85)" d="M0,0L8,0L8,17C8,20.6,10.4,23,14,23L20,23"/><path stroke="#6d6d6d" fill="none" id="shape31" transform="translate(345,316.85)" d="M0,0L8,0C8,0,8,0,8,0L20,0"/><path stroke="#6d6d6d" fill="none" id="shape32" transform="translate(217,293.85)" d="M0,0L8,0L8,45C8,48.6,10.4,51,14,51L20,51"/><path stroke="#6d6d6d" fill="none" id="shape33" transform="translate(297,344.85)" d="M0,0L8,0C8,0,8,0,8,0L20,0"/><path stroke="#6d6d6d" fill="none" id="shape34" transform="translate(93,279.85)" d="M0,0L82,-202"/><g transform="translate(51,259.85)"><g id="shape35"><path fill="#000000" d="M9.2,2L78.8,2C82.8,2,86,5.2,86,9.2L86,34.8C86,38.8,82.8,42,78.8,42L9.2,42C5.2,42,2,38.8,2,34.8L2,9.2C2,5.2,5.2,2,9.2,2z" fill-opacity="0.08"/><path stroke="#838383" fill="url(#lg1)" d="M7.2,0L76.8,0C80.8,0,84,3.2,84,7.2L84,32.8C84,36.8,80.8,40,76.8,40L7.2,40C3.2,40,0,36.8,0,32.8L0,7.2C0,3.2,3.2,0,7.2,0z"/></g><text class="st1"><tspan x="16" y="26">书城API</tspan></text></g><g transform="translate(175,60.85)"><g id="shape36"><path fill="#000000" d="M8.1,2L37.9,2C41.3,2,44,4.7,44,8.1L44,29.9C44,33.3,41.3,36,37.9,36L8.1,36C4.7,36,2,33.3,2,29.9L2,8.1C2,4.7,4.7,2,8.1,2z" fill-opacity="0.08"/><path stroke="#838383" fill="url(#lg1)" d="M6.1,0L35.9,0C39.3,0,42,2.7,42,6.1L42,27.9C42,31.3,39.3,34,35.9,34L6.1,34C2.7,34,0,31.3,0,27.9L0,6.1C0,2.7,2.7,0,6.1,0z"/></g><text class="st2"><tspan x="10" y="21.5">分类</tspan></text></g><g transform="translate(237,54.85)"><path stroke="#838383" fill="none" id="shape37" d="M0,18L60,18"/><text class="st3"><tspan x="5" y="14">分类统计</tspan></text></g><g transform="translate(237,82.85)"><path stroke="#838383" fill="none" id="shape38" d="M0,18L48,18"/><text class="st3"><tspan x="5" y="14">子分类</tspan></text></g><g transform="translate(237,148.85)"><path stroke="#838383" fill="none" id="shape39" d="M0,18L72,18"/><text class="st3"><tspan x="5" y="14">分类下书籍</tspan></text></g><g transform="translate(175,154.85)"><g id="shape40"><path fill="#000000" d="M8.1,2L37.9,2C41.3,2,44,4.7,44,8.1L44,29.9C44,33.3,41.3,36,37.9,36L8.1,36C4.7,36,2,33.3,2,29.9L2,8.1C2,4.7,4.7,2,8.1,2z" fill-opacity="0.08"/><path stroke="#838383" fill="url(#lg1)" d="M6.1,0L35.9,0C39.3,0,42,2.7,42,6.1L42,27.9C42,31.3,39.3,34,35.9,34L6.1,34C2.7,34,0,31.3,0,27.9L0,6.1C0,2.7,2.7,0,6.1,0z"/></g><text class="st2"><tspan x="10" y="21.5">书籍</tspan></text></g><g transform="translate(237,120.85)"><path stroke="#838383" fill="none" id="shape41" d="M0,18L60,18"/><text class="st3"><tspan x="5" y="14">书籍详情</tspan></text></g><g transform="translate(237,176.85)"><path stroke="#838383" fill="none" id="shape42" d="M0,18L84,18"/><text class="st3"><tspan x="5" y="14">相关书籍推荐</tspan></text></g><g transform="translate(237,204.85)"><path stroke="#838383" fill="none" id="shape43" d="M0,18L38,18"/><text class="st3"><tspan x="5" y="14">书源</tspan></text></g><g transform="translate(237,242.85)"><path stroke="#838383" fill="none" id="shape44" d="M0,18L60,18"/><text class="st3"><tspan x="5" y="14">章节列表</tspan></text></g><g transform="translate(175,384.85)"><g id="shape45"><path fill="#000000" d="M8.1,2L37.9,2C41.3,2,44,4.7,44,8.1L44,29.9C44,33.3,41.3,36,37.9,36L8.1,36C4.7,36,2,33.3,2,29.9L2,8.1C2,4.7,4.7,2,8.1,2z" fill-opacity="0.08"/><path stroke="#838383" fill="url(#lg1)" d="M6.1,0L35.9,0C39.3,0,42,2.7,42,6.1L42,27.9C42,31.3,39.3,34,35.9,34L6.1,34C2.7,34,0,31.3,0,27.9L0,6.1C0,2.7,2.7,0,6.1,0z"/></g><text class="st2"><tspan x="10" y="21.5">搜索</tspan></text></g><g transform="translate(237,364.85)"><path stroke="#838383" fill="none" id="shape46" d="M0,18L72,18"/><text class="st3"><tspan x="5" y="14">关键字搜索</tspan></text></g><g transform="translate(175,464.85)"><g id="shape47"><path fill="#000000" d="M8.1,2L51.9,2C55.3,2,58,4.7,58,8.1L58,29.9C58,33.3,55.3,36,51.9,36L8.1,36C4.7,36,2,33.3,2,29.9L2,8.1C2,4.7,4.7,2,8.1,2z" fill-opacity="0.08"/><path stroke="#838383" fill="url(#lg1)" d="M6.1,0L49.9,0C53.3,0,56,2.7,56,6.1L56,27.9C56,31.3,53.3,34,49.9,34L6.1,34C2.7,34,0,31.3,0,27.9L0,6.1C0,2.7,2.7,0,6.1,0z"/></g><text class="st2"><tspan x="10" y="21.5">排行榜</tspan></text></g><g transform="translate(251,458.85)"><path stroke="#838383" fill="none" id="shape48" d="M0,18L38,18"/><text class="st3"><tspan x="5" y="14">分类</tspan></text></g><g transform="translate(251,486.85)"><path stroke="#838383" fill="none" id="shape49" d="M0,18L72,18"/><text class="st3"><tspan x="5" y="14">分类下书籍</tspan></text></g><g transform="translate(237,392.85)"><path stroke="#838383" fill="none" id="shape50" d="M0,18L60,18"/><text class="st3"><tspan x="5" y="14">搜索热词</tspan></text></g><g transform="translate(237,420.85)"><path stroke="#838383" fill="none" id="shape51" d="M0,18L60,18"/><text class="st3"><tspan x="5" y="14">自动补全</tspan></text></g><g transform="translate(237,270.85)"><path stroke="#838383" fill="none" id="shape52" d="M0,18L60,18"/><text class="st3"><tspan x="5" y="14">最新章节</tspan></text></g><g transform="translate(175,276.85)"><g id="shape53"><path fill="#000000" d="M8.1,2L37.9,2C41.3,2,44,4.7,44,8.1L44,29.9C44,33.3,41.3,36,37.9,36L8.1,36C4.7,36,2,33.3,2,29.9L2,8.1C2,4.7,4.7,2,8.1,2z" fill-opacity="0.08"/><path stroke="#838383" fill="url(#lg1)" d="M6.1,0L35.9,0C39.3,0,42,2.7,42,6.1L42,27.9C42,31.3,39.3,34,35.9,34L6.1,34C2.7,34,0,31.3,0,27.9L0,6.1C0,2.7,2.7,0,6.1,0z"/></g><text class="st2"><tspan x="10" y="21.5">章节</tspan></text></g><g transform="translate(317,54.85)"><path stroke="#838383" fill="none" id="shape54" d="M0,18L132,18"/><text class="st3"><tspan x="5" y="14">/cats/lv2/statistics</tspan></text></g><g transform="translate(305,82.85)"><path stroke="#838383" fill="none" id="shape55" d="M0,18L66,18"/><text class="st3"><tspan x="5" y="14">/cats/lv2</tspan></text></g><g transform="translate(317,120.85)"><path stroke="#838383" fill="none" id="shape56" d="M0,18L192,18"/><text class="st3"><tspan x="5" y="14">/book/5816b415b06d1d32157790b1</tspan></text></g><g transform="translate(329,148.85)"><path stroke="#838383" fill="none" id="shape57" d="M0,18L510,18"/><text class="st3"><tspan x="5" y="14">/book/by-categories?gender=male&amp;type=hot&amp;major=玄幻&amp;minor=东方玄幻&amp;start=0&amp;limit=10</tspan></text></g><g transform="translate(295,204.85)"><path stroke="#838383" fill="none" id="shape58" d="M0,18L300,18"/><text class="st3"><tspan x="5" y="14">/atoc?view=summary&amp;book=567d2cb9ee0e56bc713cb2c0</tspan></text></g><g transform="translate(317,242.85)"><path stroke="#838383" fill="none" id="shape59" d="M0,18L300,18"/><text class="st3"><tspan x="5" y="14">/mix-atoc/567d2cb9ee0e56bc713cb2c0?view=chapters</tspan></text></g><g transform="translate(317,270.85)"><path stroke="#838383" fill="none" id="shape60" d="M0,18L288,18"/><text class="st3"><tspan x="5" y="14">/book?view=updated&amp;id=5b1739ab4e66e33f75dca017</tspan></text></g><g transform="translate(329,364.85)"><path stroke="#838383" fill="none" id="shape61" d="M0,18L186,18"/><text class="st3"><tspan x="5" y="14">/book/fuzzy-search?query=遮天</tspan></text></g><g transform="translate(317,392.85)"><path stroke="#838383" fill="none" id="shape62" d="M0,18L138,18"/><text class="st3"><tspan x="5" y="14">/book/search-hotwords</tspan></text></g><g transform="translate(317,420.85)"><path stroke="#838383" fill="none" id="shape63" d="M0,18L192,18"/><text class="st3"><tspan x="5" y="14">/book/auto-complete?query=一卡</tspan></text></g><g transform="translate(309,458.85)"><path stroke="#838383" fill="none" id="shape64" d="M0,18L102,18"/><text class="st3"><tspan x="5" y="14">/ranking/gender</tspan></text></g><g transform="translate(343,486.85)"><path stroke="#838383" fill="none" id="shape65" d="M0,18L210,18"/><text class="st3"><tspan x="5" y="14">/ranking/54d42d92321052167dfb75e3</tspan></text></g><g transform="translate(237,298.85)"><path stroke="#838383" fill="none" id="shape66" d="M0,18L108,18"/><text class="st3"><tspan x="5" y="14">根据书源获取章节</tspan></text></g><g transform="translate(365,298.85)"><path stroke="#838383" fill="none" id="shape67" d="M0,18L276,18"/><text class="st3"><tspan x="5" y="14">/atoc/579b93b0561763dd2d2382ea?view=chapters</tspan></text></g><g transform="translate(237,326.85)"><path stroke="#838383" fill="none" id="shape68" d="M0,18L60,18"/><text class="st3"><tspan x="5" y="14">章节内容</tspan></text></g><g transform="translate(317,326.85)"><path stroke="#838383" fill="none" id="shape69" d="M0,18L822,18"/><text class="st3"><tspan x="5" y="14">http://chapterup.zhuishushenqi.com/chapter/http%3A%2F%2Fvip.zhuishushenqi.com%2Fchapter%2F56f8da09176d03ac1983f6d7%3Fcv%3D1486473051386</tspan></text></g><path stroke="#3498db" fill="#3498db" id="shape70" transform="translate(74.52,550.5)" d="M14.8,12.3C14.8,12.8,14.9,13.6,14.9,14.7L13.9,13.5L10,13.5L10,15C9,14.1,9.1,13.2,9.1,12.7L9.1,5.9C9.1,5.1,9,4.2,9,3.3L13.8,3.9L15.4,4L14.8,12.3zM10,4.3L10,13.1L13.9,13.1L13.9,4.3L10,4.3zM3.4,.2L5.1,1C4.3,2.1,4,3.2,3.8,4.5L6.4,4.5L8,4.6C7,8.3,6.5,10.7,5.9,12C7,12.5,7.7,12.9,7.9,13.3C8.1,13.6,8.1,13.9,8,14.2C8,14.5,7.9,14.7,7.8,14.7C7.7,14.7,7.5,14.6,7.3,14.3C6.9,13.9,6.3,13.4,5.5,12.8C4.2,14.6,2.3,15.8,0,16.4C2.1,15.2,3.8,14,4.7,12.4C3.3,11.8,2.2,11.4,1.3,11.2C1.7,9.8,2.2,7.7,2.7,4.9C1.6,4.9,1.1,5,.6,5.2L2.8,4.5C3.1,2.8,3.3,1.3,3.4,.2zM2.3,11C2.8,11.1,3.7,11.4,5,11.8C5.6,10.4,6.1,8.1,6.5,4.9L3.7,4.9C3.4,6.4,2.9,8.4,2.3,11zM27.7,14.6C28.7,14.8,29.5,14.9,29.9,14.9C30.3,14.8,30.5,14.6,30.5,14.1L30.5,2.8L25.1,2.8C24.5,2.8,23.9,2.9,23.4,3L31.8,2.4L33.8,2.8L31.4,2.8L31.4,14.6C31.5,15.4,31,16,30,16.4C29.9,15.9,29.1,15.4,27.7,14.6zM23.4,12.2C23.4,11,23.5,9.9,23.5,8.7C23.5,7.5,23.4,6.3,23.4,5.2L27.3,5.7L28.9,5.9L28.3,9.1C28.3,9.7,28.4,10.4,28.4,11.1L27.4,11.6L27.4,10.6L24.4,10.6L23.4,12.2zM24.4,6.1L24.4,10.2L27.4,10.2L27.4,6.1L24.4,6.1zM20.2,16.4C20.2,14.2,20.3,12.6,20.3,11.6L20.3,6.1C19.7,7,18.9,8,17.8,9C18.9,7.1,19.9,5.4,20.5,3.8C21.1,2.2,21.5,1,21.7,.2L23.1,1.2C21.9,2.8,21.4,3.9,21,4.8L21.2,13C21.2,14,21.2,15,21.2,15.9L20.2,16.4zM37.5,1C38.7,1.4,39.4,1.9,39.7,2.2C40,2.6,40.1,2.9,40,3.2C40,3.6,39.9,3.8,39.7,4C39.5,4.2,39.4,4.2,39.3,4.2C39.1,4.2,38.9,4,38.8,3.4C38.6,2.7,38.2,1.9,37.5,1zM35.4,6.5L38.3,6.5L40,6.6L39.4,13.4L42.1,11C40.4,13.5,39.4,14.9,39.1,15.3L38.2,14.3C38.4,14.1,38.5,13.8,38.4,13.3L38.4,6.9L37.3,6.9C37,6.9,36.5,7,35.4,6.5zM44.6,.3L46.4,1L45.7,6.5L48.8,6.5L49.8,5.4L51.1,6.9L45.7,6.9L45.7,14.7L49.3,14.7L50.3,13.7L51.6,15.1L42,15.1C41.5,15.1,41,15.1,40.6,15.2L44.7,14.7L44.7,4.9C44.7,2.6,44.7,1.1,44.6,.3zM52.3,14.7L57.2,1.9L59.1,1.9L64.3,14.7L62.4,14.7L60.9,10.8L55.5,10.8L54.1,14.7L52.3,14.7zM56,9.5L60.3,9.5L59,5.9C58.6,4.8,58.3,4,58.1,3.3C57.9,4.1,57.7,4.9,57.4,5.7L56,9.5zM64.1,14.7L64.1,1.9L69,1.9C69.8,1.9,70.4,2,70.9,2.1C71.5,2.2,72,2.4,72.5,2.7C72.9,2.9,73.2,3.4,73.5,3.9C73.8,4.4,73.9,5,73.9,5.6C73.9,6.7,73.5,7.6,72.8,8.4C72.2,9.1,70.9,9.5,69.1,9.5L65.8,9.5L65.8,14.7L64.1,14.7zM65.8,8L69.1,8C70.2,8,71,7.8,71.5,7.4C71.9,7,72.1,6.4,72.1,5.7C72.1,5.1,72,4.7,71.7,4.3C71.5,3.9,71.1,3.7,70.7,3.6C70.4,3.5,69.9,3.4,69.1,3.4L65.8,3.4L65.8,8zM76.3,14.7L76.3,1.9L78,1.9L78,14.7L76.3,14.7zM82.5,10.5C82.6,9.5,82.6,8.3,82.6,7C82.6,5.7,82.6,4.4,82.5,3.3L83.6,3.9L87.6,3.9L87.6,1.9L82.6,1.9C82,1.9,81.4,1.9,80.9,2.1L93.3,1.5L95.7,1.9L88.6,1.9L88.6,3.9L92.3,3.9L94,4.2C93.4,7.3,93.4,9.1,93.4,9.9L92.4,10.4L88.4,9.6C88.3,11.2,87.9,12.4,87.3,13.2C88.4,14,89.5,14.4,90.6,14.6C91.7,14.8,92.7,14.8,93.6,14.8C94.3,14.8,95.2,14.8,96.1,14.7C95.3,15.1,94.9,15.5,94.8,16C93,16,91.4,15.8,90.2,15.5C88.9,15.2,87.8,14.6,86.8,13.8C86.1,14.4,85.2,15,84.1,15.4C82.9,15.8,81.6,16.1,80.1,16.4C81.6,15.7,83,15.3,84,14.8C85,14.3,85.7,13.7,86.1,13.2C85.6,12.7,84.9,11.8,84.2,10.6C85.2,11.5,86,12.2,86.6,12.7C86.8,12.3,87,11.8,87.1,11.4C87.3,10.9,87.4,10.3,87.5,9.6L83.6,9.6L82.5,10.5zM83.6,4.3L83.6,6.5L87.6,6.5L87.6,4.3L83.6,4.3zM88.6,4.3L88.6,6.5L92.4,6.5L92.4,4.3L88.6,4.3zM83.6,6.9L83.6,9.2L87.5,9.2C87.6,8.2,87.6,7.4,87.6,6.9L83.6,6.9zM88.6,6.9C88.6,7.5,88.6,8.3,88.5,9.2L92.4,9.2L92.4,6.9L88.6,6.9zM105.7,14.6C107,14.9,107.8,14.9,108.1,14.9C108.4,14.8,108.5,14.6,108.6,14.1L108.6,8.6L105.4,8.6L104.2,8.2L108.6,8.2C108.6,6.9,108.5,5.7,108.5,4.7L111,2.4L106.6,2.4L105.1,1.9L111,1.9L112.9,2.5C112.4,2.6,111.8,2.9,111.3,3.4C110.7,4,110.2,4.6,109.6,5.3L109.5,8.2L111.8,8.2L114.1,8.6L109.5,8.6L109.5,14.4C109.6,15.3,109.1,16,108,16.5C108,15.9,107.2,15.4,105.7,14.6zM97.8,16.2C99.5,14.9,100.8,13.6,101.6,12.2C100.3,11.6,99.4,11.3,98.8,11.1C99.4,9.2,99.9,7.1,100.3,4.8L99,4.8L97.7,4.4L100.4,4.4C100.7,2.6,100.9,1.3,101,.3L102.6,1C101.8,2.3,101.6,3.2,101.4,4.4L103.4,4.4L104.9,4.7C104,8,103.4,10.2,102.7,11.9C103.7,12.3,104.4,12.7,104.7,13C105,13.3,105.1,13.6,105,14C104.9,14.3,104.8,14.5,104.7,14.5C104.5,14.5,104.3,14.3,104,14.1C103.6,13.5,103,13,102.4,12.6C101.4,14,99.9,15.2,97.8,16.2zM99.7,10.9C100.2,11.1,100.9,11.3,101.9,11.6C102.5,9.9,103.1,7.6,103.5,4.8L101.3,4.8C100.8,7.1,100.2,9.1,99.7,10.9zM117.9,4.2L117.9,8.6L121.5,8.6L121.5,4.2L117.9,4.2zM117.9,9.1L117.9,13.9L121.5,13.9L121.5,9.1L117.9,9.1zM122.4,4.6C122.4,10,122.4,13.6,122.5,15.2L117.9,14.3L117.9,15.5C117,13.9,117,11.7,117,9.6C117,7.4,117,5.3,116.9,3.1L118,3.8C119.1,2.2,119.4,1,119.4,0L121,1C120.5,1.2,119.9,2.1,119.1,3.8L121.4,3.8L122.4,4.6zM125.8,.2L127.4,1.1C127,1.3,126.4,2.3,125.6,4L129.4,4L131.2,4.2C130.5,10.2,130.3,13.2,130.2,14C130,14.7,129.8,15.2,129.5,15.5C129.2,15.7,128.7,16,128.1,16.2C127.8,15.5,127.1,14.9,125.8,14.6C126.9,14.4,127.8,14.6,128.3,14.6C128.8,14.6,129.1,14.2,129.2,13.4C129.3,12.6,129.4,9.6,129.5,4.4L125.5,4.4C124.6,5.7,123.8,6.9,122.8,7.8C123.6,6.2,124.3,4.9,124.8,3.7C125.2,2.5,125.6,1.4,125.8,.2zM124.6,7C125.7,7.9,126.3,8.5,126.5,8.9C126.7,9.3,126.8,9.6,126.8,9.7C126.8,10.1,126.7,10.4,126.5,10.6C126.3,10.8,126.2,10.9,126.1,10.9C125.9,10.9,125.8,10.6,125.7,10C125.5,9,125.1,8.1,124.6,7zM139.1,.6L140.5,1.7C139.1,3.5,138.2,4.8,137.3,6C136.3,7.1,135.1,8.2,133.6,9.1C134.7,7.9,135.8,6.7,136.7,5.4C137.6,4.1,138.4,2.5,139.1,.6zM144,.8C144,3,144.8,4.5,146,5.5C147.1,6.5,148.3,7.1,149.6,7.4C148.9,7.7,148.5,8,148.2,8.5C146.7,7.7,145.4,6.5,144.5,5.2C143.6,3.8,143,2.1,142.7,.3L144,.8zM136.4,7.4L144.4,7.4L146,7.7C145.4,11.7,145.1,14,144.8,14.7C144.4,15.5,143.7,16,142.8,16.4C142.7,15.6,142,15.1,140.9,14.8C142,14.7,142.8,14.8,143.1,14.7C143.5,14.7,143.7,14.4,143.9,13.9C144.1,13.4,144.3,11.4,144.5,7.8L140.9,7.8C140.6,9.8,140,11.5,139.2,12.8C138.4,14.2,136.8,15.4,134.4,16.4C136.3,15.1,137.7,13.8,138.5,12.4C139.2,10.9,139.6,9.4,139.8,7.8L137.6,7.8L136.4,7.4zM157.7,.2C158.9,.2,159.5,.5,159.8,.7C160.1,1,160.2,1.2,160.2,1.4C160.2,1.6,160.1,1.9,159.8,2.2L164.9,2.2L167.2,2.6L153.7,2.6C153.1,2.6,152.5,2.7,152,2.9L159.3,2.2C159.2,1.8,159,1.5,158.8,1.1C158.5,.8,158.2,.5,157.7,.2zM156.5,12.7L161.6,12.6C161.2,12,160.6,11.5,160.1,11.1C161.6,11.5,162.5,11.9,162.7,12.3C163,12.6,163.2,12.9,163.2,13.2C163.2,13.3,163.1,13.6,163,13.8C162.9,14,162.8,14.1,162.7,14.1C162.6,14.1,162.6,14.1,162.5,13.9C162.3,13.6,162.1,13.3,161.9,13C159.8,13.1,158.4,13.2,157.7,13.3C156.9,13.5,156.4,13.6,156,13.9L155.3,12.5C155.7,12.5,156.1,12.3,156.5,11.9C156.9,11.5,157.4,10.9,158,10L153.8,10C153.8,13.5,153.8,15.5,153.9,16L152.8,16.4C152.9,14.9,152.9,13.6,152.9,12.6C152.9,11.6,152.9,10.4,152.8,9L158.2,9.6C158.6,9,158.9,8.5,159,8L155.4,8L154,7.8C154.4,6.2,154.4,4.8,154.3,3.2L155.8,3.8L155.3,7.6L163.2,7.6C163.2,6.6,163.2,5.1,163.2,3.3L164.8,4C164.2,6.6,164.2,7.9,164.2,8.4L159.3,8L160.4,8.6C159.8,9,159.4,9.3,159.2,9.6L164.7,9.6L166.3,9.8L165.7,14.3C165.8,15.4,165.3,16,164.2,16.4C164.2,15.8,163.5,15.3,162,15C163.4,14.8,164.2,14.8,164.4,14.8C164.7,14.8,164.8,14.7,164.8,14.5L164.8,10L159,10C158.1,11.1,157.3,12,156.5,12.7zM159.5,4.5C160.2,4,160.7,3.5,161.1,3C161.6,4.1,160.9,4.4,160.2,4.9C161.1,5.3,161.7,5.6,161.9,5.8C162.1,6.1,162.2,6.3,162.2,6.6C162.2,6.8,162.1,6.9,162.1,7.1C162,7.3,161.9,7.4,161.9,7.4C161.8,7.4,161.6,7.2,161.4,6.9C161,6.4,160.4,5.9,159.6,5.4C158.4,6.1,157.2,6.7,155.9,7.2C157,6.4,158.1,5.7,159,5C158.3,4.6,157.5,4.1,156.4,3.6C157.5,3.7,158.6,4.1,159.5,4.5zM171.4,14.3C171.7,14,171.9,13.5,172.1,12.9C171.6,12.9,171.3,12.8,171.2,12.7C171,12.5,170.8,12.3,170.8,12.1C170.7,11.9,170.7,11.7,170.7,11.5C170.8,11.2,171,11,171.2,10.8C171.5,10.6,171.9,10.6,172.3,10.7C172.7,10.7,172.9,10.9,173,11.2C173.1,11.4,173.2,11.7,173.2,11.9C173.2,12.2,173.1,12.5,173,13C172.8,13.4,172.5,13.9,172,14.4C171.5,15,171.2,15.3,170.8,15.3C170.5,15.4,170.4,15.4,170.4,15.3C170.4,15.3,170.5,15.2,170.6,15.1C170.9,14.9,171.2,14.6,171.4,14.3zM190.2,11.8C191.1,11.3,192.7,10.3,195,8.6C193.4,10.4,192.2,11.5,191.5,12.1C190.8,12.7,190.2,13.3,189.8,13.9L188.8,12.7C189,12.4,189.1,12,189.1,11.5L189.1,4.6C189.1,3.2,189.1,2,189.1,1.1L190.8,1.9L190.2,11.8zM193,2.1C194.8,3.3,195.7,4.2,195.7,4.8C195.7,5.3,195.6,5.7,195.4,5.9C195.2,6.2,195,6.3,194.9,6.3C194.7,6.3,194.6,6,194.4,5.4C194.2,4.5,193.6,3.5,193,2.1zM198.8,.5L200.5,1.3C199.9,4.4,199.9,6.3,199.7,7.6C199.6,8.8,199.4,9.9,199,10.9C200.1,11.6,200.9,12.2,201.5,12.7C202,13.1,202.3,13.6,202.3,14.1C202.3,14.6,202.2,14.9,202,15.1C201.9,15.3,201.8,15.4,201.7,15.4C201.5,15.4,201.3,15.1,201.1,14.4C200.8,13.6,200,12.6,198.9,11.2C198,12.7,196.8,13.8,195.2,14.6C193.7,15.4,191.9,15.9,189.8,16.2C191,15.7,192.2,15.3,193.2,14.8C194.3,14.4,195.3,13.7,196.2,12.9C197.2,12.1,197.8,11,198.3,9.6C198.7,8.2,198.9,5.2,198.8,.5zM215.4,7.2L215.4,9.5L218.3,9.5L218.3,7.2L215.4,7.2zM219.2,4.8C219.2,7.7,219.2,9.5,219.3,10.2L215.4,9.9C215.3,11.4,215,12.7,214.5,13.7C215.5,14.4,216.6,14.8,217.7,15C218.9,15.2,219.9,15.3,220.9,15.2C220.3,15.6,220,15.9,219.8,16.4C218.7,16.3,217.7,16.1,216.7,15.8C215.7,15.4,214.8,14.9,214,14.3C213.4,14.9,212.7,15.4,211.8,15.8C210.8,16.2,209.8,16.4,208.6,16.5C209.8,16,210.8,15.6,211.6,15.2C212.4,14.7,213,14.3,213.4,13.8C212.8,13.3,212.1,12.3,211.3,11C212.3,11.9,213.1,12.7,213.7,13.2C214.2,12.3,214.4,11.2,214.5,9.9L211.6,9.9C210.7,9.9,210.7,8.7,210.7,7.2C210.7,5.6,210.7,4.5,210.6,3.6L211.7,4.1L214.5,4.1L214.5,2.2L212,2.2C211.4,2.2,210.8,2.3,210.3,2.4L218.7,1.8L220.7,2.2L215.4,2.2L215.4,4.1L218.2,4.1L219.2,4.8zM211.6,4.5L211.6,6.8L214.5,6.8L214.5,4.5L211.6,4.5zM211.6,7.2L211.6,9.5L214.5,9.5L214.5,7.2L211.6,7.2zM215.4,4.5L215.4,6.8L218.3,6.8L218.3,4.5L215.4,4.5zM207.2,16.5C207.2,15.1,207.2,14,207.2,13.2L207.2,6.1C206.5,7.2,205.7,8.3,204.9,9.3C205.9,7.1,206.8,5.3,207.4,3.6C208.1,1.9,208.5,.9,208.6,.3L210.1,1.4C209.7,1.5,209.3,2,208.9,2.7C208.5,3.5,208.1,4.3,207.7,5.2L208.1,13.6C208.1,14.4,208.2,15.2,208.2,16L207.2,16.5zM227.1,14.1C228.1,14.3,228.9,14.4,229.4,14.4C229.8,14.4,230.1,14.1,230.1,13.5L230.1,7.4L225,7.4C224.4,7.4,223.8,7.5,223.3,7.6L230.1,7L230.1,2.1L227.1,2.1C226.5,2.1,226,2.2,225.5,2.3L234.2,1.7L236.5,2.1L231.1,2.1L231.1,7L235.9,7L237,5.8L238.5,7.4L231.1,7.4L231.1,14.1C231.2,15.1,230.6,15.8,229.4,16.2C229.4,15.5,228.7,14.9,227.1,14.1zM248.2,.3C249.5,1,250.2,1.6,250.2,2C250.1,2.4,250.1,2.6,249.9,2.8C249.8,2.9,249.7,3,249.6,3C249.4,3,249.3,2.8,249.2,2.4C249,1.8,248.6,1.2,248.2,.3zM248,4.5C248.9,5.1,249.4,5.5,249.6,5.8C249.8,6.1,249.8,6.3,249.8,6.4C249.8,6.7,249.8,6.9,249.6,7.2C249.4,7.4,249.2,7.5,249.2,7.5C249,7.5,248.9,7.3,248.9,7C248.7,6.4,248.4,5.6,248,4.5zM253.3,4.5L254.4,5.4C253.9,5.6,253.1,6.4,252.1,7.7C252.5,6.4,253,5.4,253.3,4.5zM248.4,10.6L248.4,12.4L253.6,12.4L253.6,10.6L248.4,10.6zM248.4,12.8L248.4,14.7L253.6,14.7L253.6,12.8L248.4,12.8zM246.6,2.6L251.6,3.3C252.4,2,252.9,1,253.2,0L254.4,1.1C253.9,1.3,253.1,2,252,3.3L254.4,3.3L255.9,3.5L255.4,7.3C255.4,7.7,255.4,8.3,255.5,9.1L247.5,8.7C246.6,8.4,246.6,7.2,246.6,6C246.6,4.7,246.6,3.6,246.6,2.6zM247.5,3.7L247.5,8.3L250.5,8.3L250.5,3.7L247.5,3.7zM251.4,3.7L251.4,8.3L254.6,8.3L254.6,3.7L251.4,3.7zM247.4,9.6L253.5,10.2L255,10.3L254.5,13.4C254.5,14,254.5,14.8,254.6,15.8L248.4,15.1L247.4,16.4C247.5,15.2,247.5,14.1,247.5,12.9C247.5,11.7,247.5,10.6,247.4,9.6zM242.9,.4L244.4,1.1L243.9,5.2L245.2,4.4L246.4,5.6L243.9,5.6L243.9,11.5L246.4,10.7C243.2,12.3,241.4,13.3,241.1,13.8L240.3,12.5C241,12.4,241.8,12.1,243,11.8L243,5.6C242,5.6,241.4,5.6,240.9,5.8L243,5.2L243,2.9C243,2.1,242.9,1.3,242.9,.4zM261.5,4.1C261.5,2.4,261.5,1.1,261.5,0L263.1,.8L262.5,4.1L265,4.1L266.6,4.3C265.9,10.2,265.6,13.3,265.2,14.1C264.9,15,264.2,15.5,263.4,15.7C263.4,15.1,262.8,14.5,261.4,14C262.5,13.9,263.2,14.1,263.6,14.1C263.8,14.1,264,14,264.2,13.9C264.4,13.8,264.6,13.2,264.7,12.3C264.9,11.3,265,8.8,265.1,4.5L262.5,4.5C262.5,6.1,262.4,7.4,262.3,8.5C262.2,9.7,261.8,10.9,261.3,12.2C260.7,13.5,259.7,14.8,258.3,16.2C259.1,14.7,259.9,13.5,260.4,12.3C260.9,11,261.2,9.8,261.3,8.6C261.5,7.3,261.5,6,261.5,4.5L259.7,4.5L258.3,4.1L261.5,4.1zM273.3,4.4L273.3,12C273.3,13.1,273.3,14.2,273.4,15.2L272.4,13.7L268.7,13.7L268.7,15.5C267.8,14.6,267.8,12.4,267.8,9.5C267.8,6.7,267.8,4.5,267.7,3.1L268.8,3.8L272.3,3.8L273.3,4.4zM268.7,4.2L268.7,13.3L272.4,13.3L272.4,4.2L268.7,4.2zM279.7,4.1L279.7,6.4L283.4,6.4L283.4,4.1L279.7,4.1zM284.4,4.1L284.4,6.4L288.4,6.4L288.4,4.1L284.4,4.1zM279.7,6.8L279.7,9.2L283.4,9.2L283.4,6.8L279.7,6.8zM284.4,6.8L284.4,9.2L288.4,9.2L288.4,6.8L284.4,6.8zM280.3,.3C281.1,.5,281.6,.9,282.1,1.3C282.6,1.7,282.8,2,282.8,2.4C282.8,2.7,282.7,2.9,282.5,3.1C282.4,3.3,282.3,3.3,282.2,3.3C282,3.3,281.9,3.1,281.7,2.5C281.4,1.8,280.9,1.1,280.3,.3zM284.4,12.2C284.4,14.1,284.4,15.3,284.5,15.9L283.3,16.4C283.4,14.8,283.4,13.4,283.4,12.2L277.5,12.2L276,11.8L283.4,11.8L283.4,9.6L279.7,9.6L278.6,10.9C278.7,9.6,278.7,8.3,278.7,7C278.7,5.7,278.7,4.4,278.6,3.1L279.7,3.7L285,3.7C285.3,3.2,285.7,2.6,286,1.8C286.4,1.1,286.6,.5,286.8,0L288.1,1C287.8,1.2,287.4,1.5,286.9,1.9C286.5,2.4,286,3,285.4,3.7L288.2,3.7L289.9,3.9C289.3,7.2,289.3,9.1,289.3,10L284.4,9.6L284.4,11.8L289.6,11.8L290.7,10.7L292.3,12.2L284.4,12.2zM301.3,16.5C301.4,14.6,301.4,13.3,301.4,12.6L301.4,8C301.4,7.2,301.4,6.2,301.3,5L303,5.9L302.4,13.3C302.4,14.1,302.4,14.9,302.5,15.8L301.3,16.5zM302.8,.8C303.5,3.2,304.8,4.6,306.1,5.5C307.5,6.5,308.8,7.1,310.1,7.2C309.3,7.6,308.8,7.9,308.5,8.4C307.1,7.7,305.9,6.8,304.9,5.8C304,4.8,303,3.4,302,1.7C300.9,3.5,299.8,5,298.6,6.1C297.4,7.2,295.8,8.2,293.8,9.1C295.7,7.8,297.4,6.5,298.7,4.7C300,3,300.9,1.4,301.4,0L302.8,.8zM310.8,14.7L315.7,1.9L317.5,1.9L322.8,14.7L320.8,14.7L319.4,10.8L314,10.8L312.6,14.7L310.8,14.7zM314.5,9.5L318.8,9.5L317.5,5.9C317.1,4.8,316.8,4,316.6,3.3C316.4,4.1,316.2,4.9,315.9,5.7L314.5,9.5zM322.6,14.7L322.6,1.9L327.4,1.9C328.3,1.9,328.9,2,329.4,2.1C330,2.2,330.5,2.4,331,2.7C331.4,2.9,331.7,3.4,332,3.9C332.2,4.4,332.4,5,332.4,5.6C332.4,6.7,332,7.6,331.3,8.4C330.6,9.1,329.4,9.5,327.6,9.5L324.3,9.5L324.3,14.7L322.6,14.7zM324.3,8L327.6,8C328.7,8,329.5,7.8,329.9,7.4C330.4,7,330.6,6.4,330.6,5.7C330.6,5.1,330.5,4.7,330.2,4.3C329.9,3.9,329.6,3.7,329.2,3.6C328.9,3.5,328.3,3.4,327.6,3.4L324.3,3.4L324.3,8zM334.8,14.7L334.8,1.9L336.5,1.9L336.5,14.7L334.8,14.7zM14.8,34.5C14.8,35.1,14.9,35.9,14.9,37L13.9,35.8L10,35.8L10,37.3C9,36.4,9.1,35.5,9.1,35L9.1,28.2C9.1,27.4,9,26.5,9,25.6L13.8,26.2L15.4,26.3L14.8,34.5zM10,26.6L10,35.4L13.9,35.4L13.9,26.6L10,26.6zM3.4,22.5L5.1,23.3C4.3,24.4,4,25.5,3.8,26.8L6.4,26.8L8,26.9C7,30.6,6.5,32.9,5.9,34.3C7,34.8,7.7,35.2,7.9,35.5C8.1,35.9,8.1,36.2,8,36.5C8,36.8,7.9,37,7.8,37C7.7,37,7.5,36.9,7.3,36.6C6.9,36.2,6.3,35.7,5.5,35.1C4.2,36.9,2.3,38.1,0,38.7C2.1,37.5,3.8,36.3,4.7,34.7C3.3,34.1,2.2,33.7,1.3,33.5C1.7,32.1,2.2,30,2.7,27.2C1.6,27.2,1.1,27.3,.6,27.4L2.8,26.8C3.1,25,3.3,23.6,3.4,22.5zM2.3,33.3C2.8,33.4,3.7,33.6,5,34.1C5.6,32.7,6.1,30.4,6.5,27.2L3.7,27.2C3.4,28.7,2.9,30.7,2.3,33.3zM27.7,36.9C28.7,37.1,29.5,37.2,29.9,37.2C30.3,37.1,30.5,36.9,30.5,36.4L30.5,25.1L25.1,25.1C24.5,25.1,23.9,25.1,23.4,25.3L31.8,24.7L33.8,25.1L31.4,25.1L31.4,36.9C31.5,37.7,31,38.3,30,38.7C29.9,38.2,29.1,37.6,27.7,36.9zM23.4,34.5C23.4,33.3,23.5,32.1,23.5,31C23.5,29.8,23.4,28.6,23.4,27.4L27.3,28L28.9,28.2L28.3,31.3C28.3,32,28.4,32.7,28.4,33.4L27.4,33.9L27.4,32.9L24.4,32.9L23.4,34.5zM24.4,28.4L24.4,32.4L27.4,32.4L27.4,28.4L24.4,28.4zM20.2,38.7C20.2,36.4,20.3,34.8,20.3,33.9L20.3,28.3C19.7,29.3,18.9,30.2,17.8,31.3C18.9,29.3,19.9,27.7,20.5,26.1C21.1,24.5,21.5,23.3,21.7,22.5L23.1,23.5C21.9,25.1,21.4,26.2,21,27.1L21.2,35.3C21.2,36.3,21.2,37.3,21.2,38.2L20.2,38.7zM42.5,28.2L42.5,31.1L45.2,31.1C45.2,29.8,45.3,28.8,45.3,28.2L42.5,28.2zM46.2,28.2C46.2,28.9,46.1,29.8,46.1,31.1L48.9,31.1L48.9,28.2L46.2,28.2zM49.8,28.3L49.8,30.2C49.8,30.8,49.8,31.4,49.9,32L46.1,31.5C46.1,33,45.8,34.2,45.3,35.3C46.1,35.9,47,36.4,48.1,36.8C49.2,37.1,50.3,37.3,51.5,37.4C50.8,37.8,50.3,38.1,50.1,38.6C48.1,38.1,46.4,37.3,44.9,36C44.4,36.6,43.6,37.1,42.7,37.6C41.8,38.1,40.8,38.5,39.8,38.8C40.7,38.1,41.6,37.6,42.5,37C43.3,36.5,43.9,35.9,44.3,35.4C43.7,34.7,43.1,33.7,42.4,32.4C43.4,33.4,44.1,34.2,44.6,34.7C45,33.8,45.1,32.8,45.2,31.5L42.5,31.5C41.6,31.6,41.6,30.7,41.6,29.8C41.6,28.9,41.6,28.1,41.6,27.2L45.3,27.8L45.3,25.8L42.8,25.8C42.2,25.8,41.7,25.8,41.2,26L45.3,25.3C45.3,23.9,45.2,23.3,45.2,22.4L46.7,23L46.2,25.3L49.3,25.3L51.4,25.8L46.2,25.8L46.2,27.8L48.7,27.8L49.8,28.3zM39.2,28.1L39.2,38.2C38.3,37.7,38.3,36.8,38.3,36L38.3,28.1C37.5,29.4,36.5,30.6,35.5,31.7C36.1,30.5,36.9,29.1,37.6,27.5C38.4,25.9,39,24.2,39.6,22.4L41,23.3C39.7,25.2,39.1,26.4,38.7,27.2L39.2,28.1zM61.8,28.2L61.8,31.9L66.5,31.9L66.5,28.2L61.8,28.2zM63.7,36.7C64.9,36.8,65.7,36.8,66,36.8C66.3,36.8,66.5,36.5,66.5,35.9L66.5,32.3L61.8,32.3C61.8,35.3,61.9,37,61.9,37.6L60.9,38.1C60.9,35.4,60.9,33.5,60.9,32.3L56.3,32.3C56,34.8,55,36.9,53.4,38.6C54.1,37.1,54.7,35.6,55,34.1C55.3,32.6,55.5,30.6,55.5,28C55.5,25.4,55.5,23.7,55.4,22.8L56.5,23.5L66.4,23.5L68,23.6L67.5,36.3C67.5,37.5,67,38.3,65.9,38.6C65.9,37.8,65.1,37.3,63.7,36.7zM56.5,24L56.5,27.8L60.9,27.8L60.9,24L56.5,24zM61.8,24L61.8,27.8L66.5,27.8L66.5,24L61.8,24zM56.5,28.2C56.4,30.2,56.4,31.4,56.3,31.9L60.9,31.9L60.9,28.2L56.5,28.2zM81.8,26.5C81.5,26.6,81.3,26.7,81.1,27C81.3,29,81.7,30.5,82.2,31.5C83.6,30.2,84.4,29.2,84.8,28.4L86,29.6C85.7,29.6,85.1,29.9,84.2,30.5C83.3,31.2,82.7,31.6,82.3,32C82.7,32.9,83.3,33.9,84.1,34.8C84.8,35.7,85.8,36.4,87,36.9C86.2,37.1,85.7,37.4,85.4,38C83.7,36.4,82.5,34.7,81.8,32.7C81.2,30.8,80.8,29,80.8,27.4C80,28.6,79.3,29.6,78.6,30.4L79,36.5C80.2,35.7,81.2,35,81.8,34.5C80,36.5,78.8,37.7,78.6,38.4L77.7,37.3C77.9,37.1,78.1,36.8,78.1,36.4L78.1,31.2C77.1,32.2,76.1,33,75,33.8C76.4,32.1,77.7,30.7,78.6,29.1C79.5,27.6,80.1,26.6,80.3,26L77.9,26C77.2,26,76.7,26.1,76.2,26.3L80.7,25.6C80.7,24.8,80.3,23.9,79.5,22.8C80.5,23.2,81,23.6,81.3,23.9C81.6,24.2,81.8,24.5,81.8,24.7C81.8,25,81.6,25.3,81.2,25.6L84.5,25.6L86.8,26L81.8,26.5zM73.7,38.9C73.7,37,73.7,35.7,73.7,35.1L73.7,27.7C72.9,29.3,72,30.5,71.2,31.5C72,29.8,72.7,28.1,73.4,26.5C74,24.8,74.5,23.5,74.6,22.6L76.2,23.3C75.8,23.6,75.5,24,75.2,24.5C74.9,25.1,74.6,25.8,74.2,26.7L74.6,35.2C74.6,36.3,74.7,37.3,74.7,38.4L73.7,38.9zM95.9,28.4C95.9,29.9,95.9,31,96,31.6L93.5,31.3L93.5,32.5C95.2,33.2,96.1,33.6,96.2,33.9C96.3,34.2,96.4,34.4,96.4,34.5C96.4,34.7,96.3,34.9,96.2,35.1C96.1,35.3,96.1,35.4,96,35.4C95.9,35.4,95.8,35.3,95.7,35.1C95.4,34.7,95.1,34.4,94.7,34C94.3,33.6,93.9,33.2,93.5,32.9C93.5,35,93.5,36.8,93.6,38.3C92.7,36.7,92.7,34.5,92.7,32.2C91.8,34.3,90.5,36,88.8,37.3C90.2,35.4,91.3,33.4,92.1,31.3L90.9,31.3C90.1,31.3,90.1,30.5,90.1,29.5C90.1,28.6,90.1,27.8,90,27.2L92.7,27.8L92.7,25.7L90.8,25.7C90.4,25.7,90,25.8,89.5,25.9L92.7,25.3C92.7,24.1,92.7,23.2,92.6,22.5L94.1,23.2L93.5,25.3L95.3,25.3L97.3,25.7L93.5,25.7L93.5,27.8L95,27.8L95.9,28.4zM90.9,28.2L90.9,30.8L92.7,30.8L92.7,28.2L90.9,28.2zM93.5,28.2L93.5,30.8L95.1,30.8L95.1,28.2L93.5,28.2zM104,28.5C104,31.4,104,33.1,104,33.8C103.1,33.1,103.1,31.1,103.1,28.2L98.8,28.2C98.8,31.2,98.8,33.1,98.9,33.9C98,32.8,98,30.4,98,27.4C97.4,28.3,96.8,28.9,96.3,29.4C96.9,28.2,97.5,27.1,98.1,25.9C98.6,24.7,99,23.5,99.3,22.4L100.8,23.3C99.9,23.9,99.6,24.4,99.4,24.9L102.1,24.9L103.9,25.4C103.2,25.5,102.3,26.3,101.3,27.8L102.2,25.3L99.2,25.3C98.8,26.1,98.4,26.8,98,27.4L103,27.8L104,28.5zM101.5,30.4C101.4,33.3,100.8,35.3,99.8,36.4C98.7,37.4,97.1,38.2,95.1,38.8C96.7,37.9,97.9,37.1,98.7,36.3C99.5,35.6,100,34.5,100.2,33.3C100.4,32,100.5,30.6,100.5,29L101.5,30.4zM101,35.2C102.6,35.5,103.6,36,104.1,36.3C104.7,36.6,104.9,37,104.9,37.5C104.9,37.6,104.9,37.9,104.8,38.1C104.8,38.4,104.7,38.5,104.6,38.5C104.5,38.5,104.4,38.4,104.2,38.1C103.8,37.5,103.4,37,102.9,36.6C102.5,36.2,101.8,35.7,101,35.2zM114.8,22.8C115.9,23.3,116.6,23.7,116.9,24C117.2,24.2,117.4,24.5,117.4,24.8C117.4,25,117.3,25.3,117.1,25.6C116.9,25.9,116.8,26,116.7,26C116.5,26,116.4,25.8,116.2,25.3C116,24.7,115.5,23.9,114.8,22.8zM112.1,26.7L120.1,26.7L121.2,25.6L122.5,27.1L117.2,27.1L117.2,31.5L119.4,31.5L121.7,31.9L117.2,31.9L117.2,37L120.3,37L121.4,36L122.8,37.5L113,37.5C112.4,37.5,111.9,37.5,111.3,37.7L116.2,37L116.2,31.9L114.5,31.9C113.9,31.9,113.3,32,112.8,32.1L116.2,31.5L116.2,27.1L114.4,27.1C113.8,27.1,113.2,27.2,112.1,26.7zM112.1,25.6C110.6,30.6,109.8,33.5,109.6,34.1C109.4,34.7,109.3,35.4,109.3,36.2C109.3,37.1,109.3,37.6,109.3,38C109.3,38.3,109.2,38.4,109,38.4C108.9,38.4,108.7,38.3,108.4,38.2C108,38,107.9,37.8,107.9,37.4C107.9,37.2,107.9,36.8,108.1,36.4C108.2,36,108.3,35.6,108.3,35.3C108.3,35,108.2,34.7,108,34.5C107.8,34.4,107.3,34.2,106.6,34C107.4,33.8,108,33.8,108.2,33.8C108.4,33.8,108.6,33.6,108.9,33.2C109.2,32.8,110.2,30.2,112.1,25.6zM106.7,27.4C108.3,28.1,109.1,28.7,109.2,29.2C109.2,29.6,109.1,30,108.9,30.2C108.8,30.4,108.7,30.5,108.6,30.5C108.4,30.5,108.2,30.3,108.1,29.9C107.8,29.3,107.3,28.5,106.7,27.4zM108.4,23.2C109.6,23.8,110.3,24.2,110.4,24.5C110.6,24.7,110.6,25,110.6,25.1C110.6,25.4,110.6,25.7,110.4,26C110.2,26.3,110.1,26.4,110,26.4C109.9,26.4,109.7,26.2,109.6,25.7C109.4,25,108.9,24.3,108.4,23.2zM128.8,23.7C131.1,23.7,132.1,24.3,132.5,25C132.9,25.8,133.3,26.9,133.8,28.4C134.3,29.9,135.1,31.5,136.4,33.1C137.6,34.8,139.1,35.8,140.7,36.3C139.9,36.6,139.3,36.9,138.9,37.5C137.8,36.7,136.8,35.7,136,34.6C135.2,33.6,134.6,32.5,134.1,31.5C133.6,30.4,133.1,29.1,132.7,27.5C132.1,29.6,131.1,31.6,129.9,33.3C128.7,34.9,126.9,36.6,124.4,38.2C126.4,36.3,128,34.5,129.3,32.6C130.5,30.7,131.4,28.6,131.9,26.3C132,25.7,131.8,25.2,131.2,24.8C130.6,24.4,129.8,24,128.8,23.7zM14.8,56.8C14.8,57.4,14.9,58.2,14.9,59.3L13.9,58.1L10,58.1L10,59.6C9,58.7,9.1,57.8,9.1,57.3L9.1,50.5C9.1,49.6,9,48.8,9,47.9L13.8,48.5L15.4,48.6L14.8,56.8zM10,48.9L10,57.7L13.9,57.7L13.9,48.9L10,48.9zM3.4,44.8L5.1,45.5C4.3,46.7,4,47.7,3.8,49.1L6.4,49.1L8,49.2C7,52.9,6.5,55.2,5.9,56.6C7,57.1,7.7,57.5,7.9,57.8C8.1,58.2,8.1,58.5,8,58.8C8,59.1,7.9,59.3,7.8,59.3C7.7,59.3,7.5,59.1,7.3,58.9C6.9,58.4,6.3,57.9,5.5,57.4C4.2,59.1,2.3,60.4,0,61C2.1,59.8,3.8,58.5,4.7,57C3.3,56.4,2.2,56,1.3,55.8C1.7,54.3,2.2,52.2,2.7,49.5C1.6,49.5,1.1,49.6,.6,49.7L2.8,49.1C3.1,47.3,3.3,45.9,3.4,44.8zM2.3,55.6C2.8,55.7,3.7,55.9,5,56.3C5.6,54.9,6.1,52.7,6.5,49.5L3.7,49.5C3.4,50.9,2.9,53,2.3,55.6zM27.7,59.2C28.7,59.4,29.5,59.5,29.9,59.4C30.3,59.4,30.5,59.2,30.5,58.7L30.5,47.4L25.1,47.4C24.5,47.4,23.9,47.4,23.4,47.6L31.8,46.9L33.8,47.4L31.4,47.4L31.4,59.2C31.5,60,31,60.6,30,61C29.9,60.4,29.1,59.9,27.7,59.2zM23.4,56.8C23.4,55.6,23.5,54.4,23.5,53.2C23.5,52.1,23.4,50.9,23.4,49.7L27.3,50.3L28.9,50.5L28.3,53.6C28.3,54.3,28.4,55,28.4,55.7L27.4,56.2L27.4,55.2L24.4,55.2L23.4,56.8zM24.4,50.7L24.4,54.7L27.4,54.7L27.4,50.7L24.4,50.7zM20.2,61C20.2,58.7,20.3,57.1,20.3,56.2L20.3,50.6C19.7,51.6,18.9,52.5,17.8,53.5C18.9,51.6,19.9,50,20.5,48.4C21.1,46.8,21.5,45.6,21.7,44.8L23.1,45.7C21.9,47.4,21.4,48.4,21,49.4L21.2,57.6C21.2,58.6,21.2,59.6,21.2,60.4L20.2,61zM41.6,46.8L41.6,49.9L43.7,49.9L43.7,46.8L41.6,46.8zM42.3,53.1L42.3,56.5L44.1,56.5L44.1,53.1L42.3,53.1zM45.6,48.3C46.3,48.5,46.7,48.8,47,49.1C47.3,49.4,47.4,49.6,47.4,49.9C47.4,50.2,47.3,50.4,47.1,50.6C47,50.7,46.8,50.8,46.8,50.8C46.6,50.8,46.5,50.6,46.4,50.1C46.4,49.6,46.1,49,45.6,48.3zM46.7,44.9C47.9,45.3,48.4,45.6,48.5,45.9C48.6,46.1,48.6,46.2,48.6,46.2C48.6,46.5,48.4,46.8,48,47.1L49.6,47.1L51.3,47.5L47,47.5C46.5,47.5,46,47.6,45.5,47.7L47.7,47.1C47.6,46.5,47.5,46.1,47.3,45.7C47.1,45.4,46.9,45.1,46.7,44.9zM39.3,56.5C39.7,55.5,40.1,54.4,40.4,53.2C40.6,52,40.7,50.8,40.7,49.4C40.7,48,40.7,46.8,40.7,45.7L43.6,46.4L45.2,46.7C44.6,48.7,44.6,49.8,44.7,50.4L41.6,50.3C41.5,50.9,41.5,51.5,41.4,52.2L44,52.7L45.4,52.9C44.9,55.2,44.9,56.5,45,57.4L42.3,57C41.5,57.1,41.5,55.8,41.5,54C41.5,53.1,41.5,52.5,41.4,52.2C41.2,53.6,40.6,55.1,39.3,56.5zM47.5,58.6C47.5,57.1,47.6,55.8,47.6,54.6C46.6,54.6,46.2,54.7,45.7,54.8L47.6,54.2L47.6,51.6C46.2,51.6,45.8,51.7,45.3,51.8L48,51.2C48.7,49.5,49,48.4,49,47.8L50.3,48.6C49.5,49.4,49,50.1,48.4,51.2L49.7,51.2L51.6,51.6L48.4,51.6L48.4,54.2L49.6,54.2L51.4,54.6L48.4,54.6C48.4,56.4,48.4,57.6,47.5,58.6zM36.6,45.5C37.6,45.7,38.2,46.1,38.6,46.4C39,46.8,39.2,47.1,39.1,47.4C39,47.7,38.9,48,38.8,48C38.6,48.1,38.5,48.2,38.4,48.2C38.3,48.2,38.1,47.9,38,47.4C37.7,46.8,37.3,46.1,36.6,45.5zM38.8,57C39.2,57.5,39.8,58,40.6,58.5C41.3,58.9,42.7,59.2,44.8,59.3C46.8,59.4,49.1,59.3,51.7,59.1C50.8,59.4,50.3,59.8,50.1,60.4C47.9,60.4,46.1,60.4,44.8,60.3C43.5,60.3,42.4,60.1,41.5,59.7C40.6,59.4,39.9,58.9,39.4,58.4C38.9,57.8,38.6,57.5,38.4,57.4C38.2,57.3,37.9,57.5,37.5,58C37.1,58.4,36.7,58.9,36.3,59.5C36.2,58.1,37,57.6,37.9,57L37.9,51.3C36.8,51.3,36.2,51.4,35.7,51.5L37.7,50.9L39.5,51.1L38.8,57zM67,51C67,53,67,54.2,67.1,54.7L66,55.2L63.2,54.3L63.2,58.4C63.2,59.1,63.5,59.5,64.1,59.5L67.1,59.5C67.6,59.4,67.9,58.9,68,58.1C68.1,57.2,68.1,56.5,68.2,56C68.5,56.5,68.5,57.2,68.6,57.9C68.6,58.6,68.9,59,69.4,59.3C69.1,59.9,68.5,60.2,67.6,60.3L63.7,60.3C62.7,60.4,62.2,60,62.2,59L62.2,54.3C61.1,56.6,60.2,58.2,58.8,59.1C57.4,60,55.6,60.6,53.5,61C55.7,60.1,57.4,59.3,58.4,58.3C59.5,57.4,60.2,56,60.5,54.3L57.3,54.3L56.3,55.2C56.3,54.1,56.3,52.4,56.3,50.3C55.5,51.2,54.6,51.9,53.8,52.4C55.8,50.1,57.5,47.6,58.7,44.6L60.2,45.5C59.3,46.2,59,46.7,58.7,47.2L62.6,47.2L64.6,47.7C63.9,47.7,63,48.6,62,50.3L65.9,50.3L67,51zM58.5,47.6C57.9,48.4,57.3,49.2,56.7,49.9L61.5,50.3C62.1,48.8,62.5,47.9,62.7,47.6L58.5,47.6zM57.3,50.8L57.3,53.9L60.6,53.9C60.7,52.7,60.8,51.6,60.9,50.8L57.3,50.8zM61.9,50.8C61.8,51.9,61.7,52.9,61.6,53.9L66,53.9L66,50.8L61.9,50.8zM77.2,47.4L84.5,47.4L86.5,47.8L79.3,47.8C78.7,47.8,78.2,47.8,77.2,47.4zM78.8,48C79.8,48.7,80.4,49.2,80.5,49.4C80.6,49.7,80.7,49.8,80.7,49.9C80.7,50.1,80.6,50.3,80.4,50.5C80.2,50.7,80.1,50.8,80,50.8C79.9,50.8,79.8,50.6,79.7,50.2C79.5,49.6,79.2,49,78.8,48zM81.3,52.4L80.3,54.2L85.3,54.2L87.3,54.7L84.4,54.7C83.7,56.1,83.1,57.2,82.7,57.7C83.6,58.1,84.4,58.4,85,58.7C85.7,59.1,86.1,59.4,86.2,59.6C86.3,59.9,86.3,60.1,86.3,60.3C86.3,60.4,86.3,60.6,86.2,60.7C86.2,60.8,86.1,60.9,86,60.9C85.9,60.9,85.7,60.7,85.4,60.4C85,60,84.5,59.6,84.1,59.3C83.6,59.1,83,58.7,82.2,58.4C81.4,59,80.5,59.6,79.5,60C78.4,60.5,77,60.8,75.2,60.9C76.2,60.5,77.2,60.2,78.2,59.9C79.3,59.5,80.3,58.8,81.3,58C80.2,57.6,79,57.3,77.8,57C78.2,56.2,78.7,55.5,79.2,54.7L76.7,54.7L75.5,54.2L79.3,54.2C79.8,53.2,80.1,52.2,80.4,51.4L77.4,51.4L76.2,51L82,51C82.2,50.6,82.4,50.1,82.6,49.6C82.8,49.1,83,48.5,83.2,47.8L84.6,48.8C83.3,49.9,82.8,50.6,82.4,51L85,51L87.1,51.4L80.6,51.4L81.3,52.4zM78.8,56.8C79.8,57,80.8,57.2,81.8,57.4C82.4,56.7,82.9,55.7,83.3,54.7L80.1,54.7C79.7,55.4,79.3,56.1,78.8,56.8zM80.2,44.7C81.1,45.2,81.6,45.5,81.8,45.7C82.1,46,82.2,46.2,82.2,46.3C82.2,46.5,82.1,46.7,81.9,46.9C81.7,47.2,81.6,47.3,81.5,47.3C81.4,47.3,81.3,47.1,81.2,46.7C81,46.2,80.6,45.5,80.2,44.7zM74.8,52.6L76.7,51.7L74.8,53.2L74.8,59.1C74.8,59.9,74.3,60.4,73.4,60.9C73.5,60.4,72.9,59.8,71.7,59.3C72.7,59.2,73.3,59.3,73.5,59.3C73.8,59.3,73.9,59.1,73.9,58.7L73.9,53.7C72.6,54.4,71.9,54.9,71.7,55.2L70.8,54C71.7,53.8,72.7,53.4,73.9,52.9L73.9,49L72.4,49L71,48.6L73.9,48.6C73.9,46.7,73.9,45.4,73.8,44.6L75.3,45.3L74.8,48.6L76.5,47.8L77.6,49L74.8,49L74.8,52.6zM102.6,54.9C102.6,56.4,102.7,57.6,102.7,58.5L101.7,59L101.7,57.4L92.5,57.4L92.5,58.9L91.4,59.4C91.5,57.8,91.5,55.6,91.5,52.8C91.5,50,91.5,48,91.4,46.8L92.5,47.5L101.5,47.5L103.2,47.7L102.6,54.9zM92.5,47.9L92.5,57L101.7,57L101.7,47.9L92.5,47.9zM112.8,50.3C113.9,50.8,114.6,51.3,115,51.8C115.4,52.2,115.6,52.6,115.6,52.9C115.5,53.2,115.4,53.5,115.3,53.7C115.1,53.8,115,53.9,114.9,53.9C114.7,53.9,114.5,53.6,114.3,53C114.1,52.2,113.6,51.3,112.8,50.3zM118.1,48.7C118.1,46.7,118.1,45.3,118,44.6L119.6,45.4L119.1,48.7L120.6,48.7L122.8,49.2L119.1,49.2L119.1,56.7C119.1,57.2,119,57.6,118.8,57.9C118.6,58.1,118.2,58.4,117.8,58.6C117.5,57.8,116.7,57.3,115.4,57C116.6,56.8,117.4,56.9,117.7,56.9C118,56.9,118.1,56.7,118.1,56.3L118.1,49.2L113.3,49.2C112.9,49.2,112.5,49.2,112,49.4L118.1,48.7zM108.1,45.6C109,45.8,109.7,46.2,110,46.6C110.4,46.9,110.6,47.2,110.5,47.6C110.5,47.9,110.4,48.2,110.3,48.3C110.1,48.5,110,48.5,109.9,48.5C109.7,48.5,109.5,48.3,109.3,47.7C109.1,47,108.7,46.3,108.1,45.6zM110.4,57.3C111,57.8,111.5,58.2,112.2,58.5C112.9,58.8,113.8,59,114.9,59.1C116,59.2,117,59.2,117.9,59.2C118.5,59.2,119.3,59.2,120.1,59.1C120.9,59.1,121.9,59,123,58.9C122,59.4,121.6,59.7,121.6,60.3C119.5,60.3,117.8,60.2,116.4,60.1C115,60.1,113.9,59.9,113.2,59.6C112.4,59.4,111.7,59,111.1,58.5C110.6,58,110.2,57.7,110,57.7C109.8,57.7,109.4,58,109,58.5C108.5,59,108.1,59.6,107.7,60.2C107.6,58.7,108.5,58,109.5,57.3L109.5,51.6C108.3,51.6,107.7,51.7,107.2,51.8L109.3,51.2L111,51.4L110.4,57.3zM131.3,47.5C131.5,48.5,132,48.9,132.2,49.2C132.3,49.4,132.4,49.6,132.4,49.8C132.4,50,132.3,50.2,132.1,50.5C131.9,50.7,131.8,50.8,131.7,50.8C131.6,50.8,131.5,50.6,131.4,50.2C131.3,49.7,130.9,49,130.3,48.1C129.7,48.5,129,48.9,128.3,49.2C127.6,49.6,126.8,50,125.8,50.3C127.5,49.2,129,48.2,130.1,47.2C131.2,46.2,132,45.4,132.4,44.7L133.6,45.7L131.7,47.1L137,47.1L139.1,47.6C136.9,49.1,135.3,50.3,133.4,51.4C131.5,52.4,128.8,53.2,125.3,53.7C127.5,53,129.7,52.3,131.6,51.5C133.6,50.6,135.4,49.3,137,47.5L131.3,47.5zM133.1,51.6L134.3,52.7C133.5,53.1,133.1,53.4,132.5,53.8L137.9,53.8L139.8,54.3C136.7,57.1,134.4,58.7,132.2,59.5C129.9,60.3,127.6,60.7,125.2,60.9C127.8,60.3,130.2,59.6,132.3,58.7C134.4,57.8,136.3,56.3,137.9,54.2L132.2,54.2C130.5,55.5,128.6,56.5,126.4,57.2C127.6,56.3,128.9,55.5,130,54.7C131.2,53.9,132.2,52.9,133.1,51.6zM131,55.2C131.8,55.8,132.3,56.3,132.4,56.6C132.6,56.9,132.7,57.1,132.7,57.2C132.7,57.5,132.5,57.8,132.3,58C132.1,58.2,132,58.3,131.9,58.3C131.7,58.3,131.6,58.1,131.5,57.7C131.4,57,131.2,56.2,131,55.2z"/></g></svg>